<svg width="557" height="557" viewBox="0 0 557 557" fill="none" xmlns="http://www.w3.org/2000/svg">
<path d="M342.953 21.4843C342.953 15.1186 344.81 10.079 348.523 6.36573C352.236 2.12191 357.541 0 364.437 0C370.803 0 375.842 1.85667 379.556 5.57002C383.799 9.28334 385.921 14.5881 385.921 21.4843C385.921 27.85 384.065 33.1548 380.351 37.3986C376.638 41.1119 371.333 42.9686 364.437 42.9686C358.071 42.9686 352.767 41.1119 348.523 37.3986C344.81 33.1548 342.953 27.85 342.953 21.4843ZM299.984 21.4843C299.984 15.1186 301.841 10.079 305.554 6.36573C309.268 2.12191 314.572 0 321.469 0C327.834 0 332.874 1.85667 336.587 5.57002C340.831 9.28334 342.953 14.5881 342.953 21.4843C342.953 27.85 341.096 33.1548 337.383 37.3986C333.67 41.1119 328.365 42.9686 321.469 42.9686C315.103 42.9686 309.798 41.1119 305.554 37.3986C301.841 33.1548 299.984 27.85 299.984 21.4843ZM257.016 21.4843C257.016 15.1186 258.872 10.079 262.586 6.36573C266.299 2.12191 271.604 0 278.5 0C284.866 0 289.905 1.85667 293.619 5.57002C297.862 9.28334 299.984 14.5881 299.984 21.4843C299.984 27.85 298.128 33.1548 294.414 37.3986C290.701 41.1119 285.396 42.9686 278.5 42.9686C272.134 42.9686 266.83 41.1119 262.586 37.3986C258.872 33.1548 257.016 27.85 257.016 21.4843ZM214.047 21.4843C214.047 15.1186 215.904 10.079 219.617 6.36573C223.33 2.12191 228.635 0 235.531 0C241.897 0 246.937 1.85667 250.65 5.57002C254.894 9.28334 257.016 14.5881 257.016 21.4843C257.016 27.85 255.159 33.1548 251.446 37.3986C247.732 41.1119 242.428 42.9686 235.531 42.9686C229.166 42.9686 223.861 41.1119 219.617 37.3986C215.904 33.1548 214.047 27.85 214.047 21.4843ZM171.079 21.4843C171.079 15.1186 172.935 10.079 176.649 6.36573C180.362 2.12191 185.667 0 192.563 0C198.929 0 203.968 1.85667 207.681 5.57002C211.925 9.28334 214.047 14.5881 214.047 21.4843C214.047 27.85 212.19 33.1548 208.477 37.3986C204.764 41.1119 199.459 42.9686 192.563 42.9686C186.197 42.9686 180.892 41.1119 176.649 37.3986C172.935 33.1548 171.079 27.85 171.079 21.4843ZM428.094 65.2486C428.094 71.6143 425.972 76.6538 421.729 80.3671C418.015 84.0805 412.976 85.9372 406.61 85.9372C392.818 85.9372 385.921 78.5105 385.921 63.6572C385.921 57.2914 387.778 52.2519 391.491 48.5386C395.735 44.8252 401.04 42.9686 407.406 42.9686C421.198 42.9686 428.094 49.8648 428.094 63.6572V65.2486ZM128.906 64.4529C128.906 70.8186 127.049 76.1233 123.336 80.3671C119.622 84.0805 114.318 85.9372 107.421 85.9372C101.056 85.9372 95.751 84.0805 91.5071 80.3671C87.7938 76.6538 85.9371 71.3491 85.9371 64.4529C85.9371 58.0871 87.7938 53.0476 91.5071 49.3343C95.2205 45.0905 100.525 42.9686 107.421 42.9686C113.787 42.9686 118.827 45.0905 122.54 49.3343C126.784 53.0476 128.906 58.0871 128.906 64.4529ZM471.063 64.4529C471.063 70.8186 469.206 76.1233 465.493 80.3671C461.779 84.0805 456.475 85.9372 449.579 85.9372C443.213 85.9372 437.908 84.0805 433.664 80.3671C429.951 76.6538 428.094 71.3491 428.094 64.4529C428.094 58.0871 429.951 53.0476 433.664 49.3343C437.378 45.0905 442.682 42.9686 449.579 42.9686C455.944 42.9686 460.984 45.0905 464.697 49.3343C468.941 53.0476 471.063 58.0871 471.063 64.4529ZM171.079 65.2486C171.079 71.6143 168.957 76.6538 164.713 80.3671C161 84.0805 155.96 85.9372 149.594 85.9372C135.802 85.9372 128.906 78.5105 128.906 63.6572C128.906 57.2914 130.762 52.2519 134.476 48.5386C138.72 44.8252 144.024 42.9686 150.39 42.9686C164.182 42.9686 171.079 49.8648 171.079 63.6572V65.2486ZM385.921 107.421C385.921 113.787 384.065 119.092 380.351 123.336C376.638 127.049 371.333 128.906 364.437 128.906C358.071 128.906 352.767 127.049 348.523 123.336C344.81 119.622 342.953 114.318 342.953 107.421C342.953 101.056 344.81 96.0162 348.523 92.3028C352.236 88.0591 357.541 85.9372 364.437 85.9372C370.803 85.9372 375.842 88.0591 379.556 92.3028C383.799 96.0162 385.921 101.056 385.921 107.421ZM428.094 108.217C428.094 114.583 425.972 119.622 421.729 123.336C418.015 127.049 412.976 128.906 406.61 128.906C392.818 128.906 385.921 121.479 385.921 106.626C385.921 100.26 387.778 95.2205 391.491 91.5071C395.735 87.7938 401.04 85.9372 407.406 85.9372C421.198 85.9372 428.094 92.8333 428.094 106.626V108.217ZM85.9371 107.421C85.9371 113.787 84.0805 119.092 80.3671 123.336C76.6538 127.049 71.349 128.906 64.4529 128.906C58.0871 128.906 52.7824 127.049 48.5386 123.336C44.8252 119.622 42.9686 114.318 42.9686 107.421C42.9686 101.056 44.8252 96.0162 48.5386 92.3028C52.2519 88.0591 57.5567 85.9372 64.4529 85.9372C70.8186 85.9372 75.8581 88.0591 79.5714 92.3028C83.8152 96.0162 85.9371 101.056 85.9371 107.421ZM128.906 107.421C128.906 113.787 127.049 119.092 123.336 123.336C119.622 127.049 114.318 128.906 107.421 128.906C101.056 128.906 95.751 127.049 91.5071 123.336C87.7938 119.622 85.9371 114.318 85.9371 107.421C85.9371 101.056 87.7938 96.0162 91.5071 92.3028C95.2205 88.0591 100.525 85.9372 107.421 85.9372C113.787 85.9372 118.827 88.0591 122.54 92.3028C126.784 96.0162 128.906 101.056 128.906 107.421ZM471.063 107.421C471.063 113.787 469.206 119.092 465.493 123.336C461.779 127.049 456.475 128.906 449.579 128.906C443.213 128.906 437.908 127.049 433.664 123.336C429.951 119.622 428.094 114.318 428.094 107.421C428.094 101.056 429.951 96.0162 433.664 92.3028C437.378 88.0591 442.682 85.9372 449.579 85.9372C455.944 85.9372 460.984 88.0591 464.697 92.3028C468.941 96.0162 471.063 101.056 471.063 107.421ZM171.079 108.217C171.079 114.583 168.957 119.622 164.713 123.336C161 127.049 155.96 128.906 149.594 128.906C135.802 128.906 128.906 121.479 128.906 106.626C128.906 100.26 130.762 95.2205 134.476 91.5071C138.72 87.7938 144.024 85.9372 150.39 85.9372C164.182 85.9372 171.079 92.8333 171.079 106.626V108.217ZM514.031 107.421C514.031 113.787 512.175 119.092 508.461 123.336C504.748 127.049 499.443 128.906 492.547 128.906C486.181 128.906 480.877 127.049 476.633 123.336C472.92 119.622 471.063 114.318 471.063 107.421C471.063 101.056 472.92 96.0162 476.633 92.3028C480.346 88.0591 485.651 85.9372 492.547 85.9372C498.913 85.9372 503.952 88.0591 507.666 92.3028C511.91 96.0162 514.031 101.056 514.031 107.421ZM214.047 107.421C214.047 113.787 212.19 119.092 208.477 123.336C204.764 127.049 199.459 128.906 192.563 128.906C186.197 128.906 180.892 127.049 176.649 123.336C172.935 119.622 171.079 114.318 171.079 107.421C171.079 101.056 172.935 96.0162 176.649 92.3028C180.362 88.0591 185.667 85.9372 192.563 85.9372C198.929 85.9372 203.968 88.0591 207.681 92.3028C211.925 96.0162 214.047 101.056 214.047 107.421ZM428.094 150.39C428.094 156.756 425.972 161.795 421.729 165.509C418.015 169.222 412.976 171.079 406.61 171.079C400.244 171.079 395.205 169.222 391.491 165.509C387.778 161.265 385.921 155.96 385.921 149.594C385.921 135.802 393.083 128.906 407.406 128.906C413.241 128.906 418.015 131.028 421.729 135.271C425.972 138.985 428.094 143.759 428.094 149.594V150.39ZM385.921 150.39C385.921 164.182 378.495 171.079 363.641 171.079C357.276 171.079 352.236 169.222 348.523 165.509C344.81 161.265 342.953 155.96 342.953 149.594C342.953 135.802 350.379 128.906 365.233 128.906C379.025 128.906 385.921 135.802 385.921 149.594V150.39ZM85.9371 150.39C85.9371 164.182 78.5105 171.079 63.6571 171.079C57.2914 171.079 52.2519 169.222 48.5386 165.509C44.8252 161.265 42.9686 155.96 42.9686 149.594C42.9686 135.802 50.3952 128.906 65.2486 128.906C79.0409 128.906 85.9371 135.802 85.9371 149.594V150.39ZM128.906 150.39C128.906 164.182 121.479 171.079 106.626 171.079C100.26 171.079 95.2205 169.222 91.5071 165.509C87.7938 161.265 85.9371 155.96 85.9371 149.594C85.9371 135.802 93.3638 128.906 108.217 128.906C122.01 128.906 128.906 135.802 128.906 149.594V150.39ZM514.031 150.39C514.031 164.182 506.605 171.079 491.751 171.079C485.386 171.079 480.346 169.222 476.633 165.509C472.92 161.265 471.063 155.96 471.063 149.594C471.063 135.802 478.49 128.906 493.343 128.906C507.135 128.906 514.031 135.802 514.031 149.594V150.39ZM171.079 150.39C171.079 156.756 168.957 161.795 164.713 165.509C161 169.222 155.96 171.079 149.594 171.079C143.229 171.079 138.189 169.222 134.476 165.509C130.762 161.265 128.906 155.96 128.906 149.594C128.906 135.802 136.067 128.906 150.39 128.906C156.225 128.906 161 131.028 164.713 135.271C168.957 138.985 171.079 143.759 171.079 149.594V150.39ZM471.063 150.39C471.063 164.182 463.636 171.079 448.783 171.079C442.417 171.079 437.378 169.222 433.664 165.509C429.951 161.265 428.094 155.96 428.094 149.594C428.094 135.802 435.521 128.906 450.374 128.906C464.167 128.906 471.063 135.802 471.063 149.594V150.39ZM214.047 150.39C214.047 164.182 206.62 171.079 191.767 171.079C185.401 171.079 180.362 169.222 176.649 165.509C172.935 161.265 171.079 155.96 171.079 149.594C171.079 135.802 178.505 128.906 193.359 128.906C207.151 128.906 214.047 135.802 214.047 149.594V150.39ZM214.047 192.563C214.047 198.929 212.19 204.233 208.477 208.477C204.764 212.19 199.459 214.047 192.563 214.047C186.197 214.047 180.892 212.19 176.649 208.477C172.935 204.764 171.079 199.459 171.079 192.563C171.079 186.197 172.935 181.158 176.649 177.444C180.362 173.2 185.667 171.079 192.563 171.079C198.929 171.079 203.968 173.2 207.681 177.444C211.925 181.158 214.047 186.197 214.047 192.563ZM0 192.563C0 186.197 1.85667 181.158 5.57 177.444C9.28333 173.2 14.5881 171.079 21.4843 171.079C27.85 171.079 32.8895 172.935 36.6029 176.649C40.8467 180.362 42.9686 185.667 42.9686 192.563C42.9686 198.929 41.1119 204.233 37.3986 208.477C33.6852 212.19 28.3805 214.047 21.4843 214.047C15.1186 214.047 9.81381 212.19 5.57 208.477C1.85667 204.233 0 198.929 0 192.563ZM385.921 192.563C385.921 198.929 384.065 204.233 380.351 208.477C376.638 212.19 371.333 214.047 364.437 214.047C358.071 214.047 352.767 212.19 348.523 208.477C344.81 204.764 342.953 199.459 342.953 192.563C342.953 186.197 344.81 181.158 348.523 177.444C352.236 173.2 357.541 171.079 364.437 171.079C370.803 171.079 375.842 173.2 379.556 177.444C383.799 181.158 385.921 186.197 385.921 192.563ZM471.063 192.563C471.063 198.929 469.206 204.233 465.493 208.477C461.779 212.19 456.475 214.047 449.579 214.047C443.213 214.047 437.908 212.19 433.664 208.477C429.951 204.764 428.094 199.459 428.094 192.563C428.094 186.197 429.951 181.158 433.664 177.444C437.378 173.2 442.682 171.079 449.579 171.079C455.944 171.079 460.984 173.2 464.697 177.444C468.941 181.158 471.063 186.197 471.063 192.563ZM171.079 193.359C171.079 199.724 168.957 204.764 164.713 208.477C161 212.19 155.96 214.047 149.594 214.047C135.802 214.047 128.906 206.62 128.906 191.767C128.906 185.401 130.762 180.362 134.476 176.649C138.72 172.935 144.024 171.079 150.39 171.079C164.182 171.079 171.079 177.975 171.079 191.767V193.359ZM514.031 192.563C514.031 198.929 512.175 204.233 508.461 208.477C504.748 212.19 499.443 214.047 492.547 214.047C486.181 214.047 480.877 212.19 476.633 208.477C472.92 204.764 471.063 199.459 471.063 192.563C471.063 186.197 472.92 181.158 476.633 177.444C480.346 173.2 485.651 171.079 492.547 171.079C498.913 171.079 503.952 173.2 507.666 177.444C511.91 181.158 514.031 186.197 514.031 192.563ZM85.9371 192.563C85.9371 186.197 87.7938 181.158 91.5071 177.444C95.2205 173.2 100.525 171.079 107.421 171.079C113.787 171.079 118.827 173.2 122.54 177.444C126.784 181.158 128.906 186.197 128.906 192.563C128.906 198.929 127.049 204.233 123.336 208.477C119.622 212.19 114.318 214.047 107.421 214.047C101.056 214.047 95.751 212.19 91.5071 208.477C87.7938 204.764 85.9371 199.459 85.9371 192.563ZM64.4529 214.047C58.0871 214.047 52.7824 212.19 48.5386 208.477C44.8252 204.764 42.9686 199.459 42.9686 192.563C42.9686 186.197 44.8252 181.158 48.5386 177.444C52.2519 173.2 57.5567 171.079 64.4529 171.079C70.8186 171.079 75.8581 173.2 79.5714 177.444C83.8152 181.158 85.9371 186.197 85.9371 192.563C85.9371 198.929 84.0805 204.233 80.3671 208.477C76.6538 212.19 71.349 214.047 64.4529 214.047ZM428.094 193.359C428.094 199.724 425.972 204.764 421.729 208.477C418.015 212.19 412.976 214.047 406.61 214.047C392.818 214.047 385.921 206.62 385.921 191.767C385.921 185.401 387.778 180.362 391.491 176.649C395.735 172.935 401.04 171.079 407.406 171.079C421.198 171.079 428.094 177.975 428.094 191.767V193.359ZM514.031 192.563C514.031 186.197 515.888 181.158 519.601 177.444C523.315 173.2 528.619 171.079 535.516 171.079C541.881 171.079 546.921 172.935 550.634 176.649C554.878 180.362 557 185.667 557 192.563C557 198.929 555.143 204.233 551.43 208.477C547.717 212.19 542.412 214.047 535.516 214.047C529.15 214.047 523.845 212.19 519.601 208.477C515.888 204.233 514.031 198.929 514.031 192.563ZM171.079 236.327C171.079 242.693 168.957 247.732 164.713 251.446C161 255.159 155.96 257.016 149.594 257.016C135.802 257.016 128.906 249.589 128.906 234.736C128.906 228.37 130.762 223.33 134.476 219.617C138.72 215.904 144.024 214.047 150.39 214.047C164.182 214.047 171.079 220.943 171.079 234.736V236.327ZM214.047 235.531C214.047 229.166 215.904 224.126 219.617 220.413C223.33 216.169 228.635 214.047 235.531 214.047C241.897 214.047 246.937 216.169 250.65 220.413C254.894 224.126 257.016 229.166 257.016 235.531C257.016 241.897 255.159 247.202 251.446 251.446C247.732 255.159 242.428 257.016 235.531 257.016C229.166 257.016 223.861 255.159 219.617 251.446C215.904 247.732 214.047 242.428 214.047 235.531ZM471.063 235.531C471.063 229.166 472.92 224.126 476.633 220.413C480.346 216.169 485.651 214.047 492.547 214.047C498.913 214.047 503.952 216.169 507.666 220.413C511.91 224.126 514.031 229.166 514.031 235.531C514.031 241.897 512.175 247.202 508.461 251.446C504.748 255.159 499.443 257.016 492.547 257.016C486.181 257.016 480.877 255.159 476.633 251.446C472.92 247.732 471.063 242.428 471.063 235.531ZM449.579 257.016C443.213 257.016 437.908 255.159 433.664 251.446C429.951 247.732 428.094 242.428 428.094 235.531C428.094 229.166 429.951 224.126 433.664 220.413C437.378 216.169 442.682 214.047 449.579 214.047C455.944 214.047 460.984 216.169 464.697 220.413C468.941 224.126 471.063 229.166 471.063 235.531C471.063 241.897 469.206 247.202 465.493 251.446C461.779 255.159 456.475 257.016 449.579 257.016ZM128.906 235.531C128.906 241.897 127.049 247.202 123.336 251.446C119.622 255.159 114.318 257.016 107.421 257.016C101.056 257.016 95.751 255.159 91.5071 251.446C87.7938 247.732 85.9371 242.428 85.9371 235.531C85.9371 229.166 87.7938 224.126 91.5071 220.413C95.2205 216.169 100.525 214.047 107.421 214.047C113.787 214.047 118.827 216.169 122.54 220.413C126.784 224.126 128.906 229.166 128.906 235.531ZM428.094 236.327C428.094 242.693 425.972 247.732 421.729 251.446C418.015 255.159 412.976 257.016 406.61 257.016C392.818 257.016 385.921 249.589 385.921 234.736C385.921 228.37 387.778 223.33 391.491 219.617C395.735 215.904 401.04 214.047 407.406 214.047C421.198 214.047 428.094 220.943 428.094 234.736V236.327ZM257.016 235.531C257.016 229.166 258.872 224.126 262.586 220.413C266.299 216.169 271.604 214.047 278.5 214.047C284.866 214.047 289.905 216.169 293.619 220.413C297.862 224.126 299.984 229.166 299.984 235.531C299.984 241.897 298.128 247.202 294.414 251.446C290.701 255.159 285.396 257.016 278.5 257.016C272.134 257.016 266.83 255.159 262.586 251.446C258.872 247.732 257.016 242.428 257.016 235.531ZM299.984 235.531C299.984 229.166 301.841 224.126 305.554 220.413C309.268 216.169 314.572 214.047 321.469 214.047C327.834 214.047 332.874 216.169 336.587 220.413C340.831 224.126 342.953 229.166 342.953 235.531C342.953 241.897 341.096 247.202 337.383 251.446C333.67 255.159 328.365 257.016 321.469 257.016C315.103 257.016 309.798 255.159 305.554 251.446C301.841 247.732 299.984 242.428 299.984 235.531ZM514.031 235.531C514.031 229.166 515.888 224.126 519.601 220.413C523.315 216.169 528.619 214.047 535.516 214.047C541.881 214.047 546.921 215.904 550.634 219.617C554.878 223.33 557 228.635 557 235.531C557 241.897 555.143 247.202 551.43 251.446C547.717 255.159 542.412 257.016 535.516 257.016C529.15 257.016 523.845 255.159 519.601 251.446C515.888 247.202 514.031 241.897 514.031 235.531ZM0 235.531C0 229.166 1.85667 224.126 5.57 220.413C9.28333 216.169 14.5881 214.047 21.4843 214.047C27.85 214.047 32.8895 215.904 36.6029 219.617C40.8467 223.33 42.9686 228.635 42.9686 235.531C42.9686 241.897 41.1119 247.202 37.3986 251.446C33.6852 255.159 28.3805 257.016 21.4843 257.016C15.1186 257.016 9.81381 255.159 5.57 251.446C1.85667 247.202 0 241.897 0 235.531ZM342.953 235.531C342.953 229.166 344.81 224.126 348.523 220.413C352.236 216.169 357.541 214.047 364.437 214.047C370.803 214.047 375.842 216.169 379.556 220.413C383.799 224.126 385.921 229.166 385.921 235.531C385.921 241.897 384.065 247.202 380.351 251.446C376.638 255.159 371.333 257.016 364.437 257.016C358.071 257.016 352.767 255.159 348.523 251.446C344.81 247.732 342.953 242.428 342.953 235.531ZM192.563 257.016C186.197 257.016 180.892 255.159 176.649 251.446C172.935 247.732 171.079 242.428 171.079 235.531C171.079 229.166 172.935 224.126 176.649 220.413C180.362 216.169 185.667 214.047 192.563 214.047C198.929 214.047 203.968 216.169 207.681 220.413C211.925 224.126 214.047 229.166 214.047 235.531C214.047 241.897 212.19 247.202 208.477 251.446C204.764 255.159 199.459 257.016 192.563 257.016ZM257.016 278.5C257.016 284.866 255.159 290.17 251.446 294.414C247.732 298.128 242.428 299.984 235.531 299.984C229.166 299.984 223.861 298.128 219.617 294.414C215.904 290.701 214.047 285.396 214.047 278.5C214.047 272.134 215.904 267.095 219.617 263.381C223.33 259.138 228.635 257.016 235.531 257.016C241.897 257.016 246.937 259.138 250.65 263.381C254.894 267.095 257.016 272.134 257.016 278.5ZM299.984 278.5C299.984 284.866 298.128 290.17 294.414 294.414C290.701 298.128 285.396 299.984 278.5 299.984C272.134 299.984 266.83 298.128 262.586 294.414C258.872 290.701 257.016 285.396 257.016 278.5C257.016 272.134 258.872 267.095 262.586 263.381C266.299 259.138 271.604 257.016 278.5 257.016C284.866 257.016 289.905 259.138 293.619 263.381C297.862 267.095 299.984 272.134 299.984 278.5ZM514.031 278.5C514.031 272.134 515.888 267.095 519.601 263.381C523.315 259.138 528.619 257.016 535.516 257.016C541.881 257.016 546.921 258.872 550.634 262.586C554.878 266.299 557 271.604 557 278.5C557 284.866 555.143 290.17 551.43 294.414C547.717 298.128 542.412 299.984 535.516 299.984C529.15 299.984 523.845 298.128 519.601 294.414C515.888 290.17 514.031 284.866 514.031 278.5ZM0 278.5C0 272.134 1.85667 267.095 5.57 263.381C9.28333 259.138 14.5881 257.016 21.4843 257.016C27.85 257.016 32.8895 258.872 36.6029 262.586C40.8467 266.299 42.9686 271.604 42.9686 278.5C42.9686 284.866 41.1119 290.17 37.3986 294.414C33.6852 298.128 28.3805 299.984 21.4843 299.984C15.1186 299.984 9.81381 298.128 5.57 294.414C1.85667 290.17 0 284.866 0 278.5ZM342.953 278.5C342.953 284.866 341.096 290.17 337.383 294.414C333.67 298.128 328.365 299.984 321.469 299.984C315.103 299.984 309.798 298.128 305.554 294.414C301.841 290.701 299.984 285.396 299.984 278.5C299.984 272.134 301.841 267.095 305.554 263.381C309.268 259.138 314.572 257.016 321.469 257.016C327.834 257.016 332.874 259.138 336.587 263.381C340.831 267.095 342.953 272.134 342.953 278.5ZM299.984 321.469C299.984 327.834 298.128 333.139 294.414 337.383C290.701 341.096 285.396 342.953 278.5 342.953C272.134 342.953 266.83 341.096 262.586 337.383C258.872 333.67 257.016 328.365 257.016 321.469C257.016 315.103 258.872 310.063 262.586 306.35C266.299 302.106 271.604 299.984 278.5 299.984C284.866 299.984 289.905 302.106 293.619 306.35C297.862 310.063 299.984 315.103 299.984 321.469ZM514.031 321.469C514.031 315.103 515.888 310.063 519.601 306.35C523.315 302.106 528.619 299.984 535.516 299.984C541.881 299.984 546.921 301.841 550.634 305.554C554.878 309.268 557 314.572 557 321.469C557 327.834 555.143 333.139 551.43 337.383C547.717 341.096 542.412 342.953 535.516 342.953C529.15 342.953 523.845 341.096 519.601 337.383C515.888 333.139 514.031 327.834 514.031 321.469ZM0 321.469C0 315.103 1.85667 310.063 5.57 306.35C9.28333 302.106 14.5881 299.984 21.4843 299.984C27.85 299.984 32.8895 301.841 36.6029 305.554C40.8467 309.268 42.9686 314.572 42.9686 321.469C42.9686 327.834 41.1119 333.139 37.3986 337.383C33.6852 341.096 28.3805 342.953 21.4843 342.953C15.1186 342.953 9.81381 341.096 5.57 337.383C1.85667 333.139 0 327.834 0 321.469ZM514.031 364.437C514.031 358.071 515.888 353.032 519.601 349.319C523.315 345.075 528.619 342.953 535.516 342.953C541.881 342.953 546.921 344.81 550.634 348.523C554.878 352.236 557 357.541 557 364.437C557 370.803 555.143 376.108 551.43 380.351C547.717 384.065 542.412 385.921 535.516 385.921C529.15 385.921 523.845 384.065 519.601 380.351C515.888 376.108 514.031 370.803 514.031 364.437ZM0 364.437C0 358.071 1.85667 353.032 5.57 349.319C9.28333 345.075 14.5881 342.953 21.4843 342.953C27.85 342.953 32.8895 344.81 36.6029 348.523C40.8467 352.236 42.9686 357.541 42.9686 364.437C42.9686 370.803 41.1119 376.108 37.3986 380.351C33.6852 384.065 28.3805 385.921 21.4843 385.921C15.1186 385.921 9.81381 384.065 5.57 380.351C1.85667 376.108 0 370.803 0 364.437ZM299.984 364.437C299.984 358.071 301.841 353.032 305.554 349.319C309.268 345.075 314.572 342.953 321.469 342.953C327.834 342.953 332.874 345.075 336.587 349.319C340.831 353.032 342.953 358.071 342.953 364.437C342.953 370.803 341.096 376.108 337.383 380.351C333.67 384.065 328.365 385.921 321.469 385.921C315.103 385.921 309.798 384.065 305.554 380.351C301.841 376.638 299.984 371.333 299.984 364.437ZM257.016 364.437C257.016 370.803 255.159 376.108 251.446 380.351C247.732 384.065 242.428 385.921 235.531 385.921C229.166 385.921 223.861 384.065 219.617 380.351C215.904 376.638 214.047 371.333 214.047 364.437C214.047 358.071 215.904 353.032 219.617 349.319C223.33 345.075 228.635 342.953 235.531 342.953C241.897 342.953 246.937 345.075 250.65 349.319C254.894 353.032 257.016 358.071 257.016 364.437ZM278.5 385.921C272.134 385.921 266.83 384.065 262.586 380.351C258.872 376.638 257.016 371.333 257.016 364.437C257.016 358.071 258.872 353.032 262.586 349.319C266.299 345.075 271.604 342.953 278.5 342.953C284.866 342.953 289.905 345.075 293.619 349.319C297.862 353.032 299.984 358.071 299.984 364.437C299.984 370.803 298.128 376.108 294.414 380.351C290.701 384.065 285.396 385.921 278.5 385.921ZM514.031 407.406C514.031 421.198 506.605 428.094 491.751 428.094C485.386 428.094 480.346 426.238 476.633 422.524C472.92 418.28 471.063 412.976 471.063 406.61C471.063 392.818 478.49 385.921 493.343 385.921C507.135 385.921 514.031 392.818 514.031 406.61V407.406ZM342.953 407.406C342.953 421.198 335.526 428.094 320.673 428.094C314.307 428.094 309.268 426.238 305.554 422.524C301.841 418.28 299.984 412.976 299.984 406.61C299.984 392.818 307.411 385.921 322.264 385.921C336.057 385.921 342.953 392.818 342.953 406.61V407.406ZM299.984 407.406C299.984 421.198 292.558 428.094 277.704 428.094C271.339 428.094 266.299 426.238 262.586 422.524C258.872 418.28 257.016 412.976 257.016 406.61C257.016 392.818 264.442 385.921 279.296 385.921C293.088 385.921 299.984 392.818 299.984 406.61V407.406ZM85.9371 407.406C85.9371 421.198 78.5105 428.094 63.6571 428.094C57.2914 428.094 52.2519 426.238 48.5386 422.524C44.8252 418.28 42.9686 412.976 42.9686 406.61C42.9686 392.818 50.3952 385.921 65.2486 385.921C79.0409 385.921 85.9371 392.818 85.9371 406.61V407.406ZM257.016 407.406C257.016 421.198 249.589 428.094 234.736 428.094C228.37 428.094 223.33 426.238 219.617 422.524C215.904 418.28 214.047 412.976 214.047 406.61C214.047 392.818 221.474 385.921 236.327 385.921C250.12 385.921 257.016 392.818 257.016 406.61V407.406ZM342.953 449.579C342.953 443.213 344.81 438.173 348.523 434.46C352.236 430.216 357.541 428.094 364.437 428.094C370.803 428.094 375.842 430.216 379.556 434.46C383.799 438.173 385.921 443.213 385.921 449.579C385.921 455.944 384.065 461.249 380.351 465.493C376.638 469.206 371.333 471.063 364.437 471.063C358.071 471.063 352.767 469.206 348.523 465.493C344.81 461.78 342.953 456.475 342.953 449.579ZM514.031 449.579C514.031 455.944 512.175 461.249 508.461 465.493C504.748 469.206 499.443 471.063 492.547 471.063C486.181 471.063 480.877 469.206 476.633 465.493C472.92 461.78 471.063 456.475 471.063 449.579C471.063 443.213 472.92 438.173 476.633 434.46C480.346 430.216 485.651 428.094 492.547 428.094C498.913 428.094 503.952 430.216 507.666 434.46C511.91 438.173 514.031 443.213 514.031 449.579ZM257.016 449.579C257.016 443.213 258.872 438.173 262.586 434.46C266.299 430.216 271.604 428.094 278.5 428.094C284.866 428.094 289.905 430.216 293.619 434.46C297.862 438.173 299.984 443.213 299.984 449.579C299.984 455.944 298.128 461.249 294.414 465.493C290.701 469.206 285.396 471.063 278.5 471.063C272.134 471.063 266.83 469.206 262.586 465.493C258.872 461.78 257.016 456.475 257.016 449.579ZM299.984 449.579C299.984 443.213 301.841 438.173 305.554 434.46C309.268 430.216 314.572 428.094 321.469 428.094C327.834 428.094 332.874 430.216 336.587 434.46C340.831 438.173 342.953 443.213 342.953 449.579C342.953 455.944 341.096 461.249 337.383 465.493C333.67 469.206 328.365 471.063 321.469 471.063C315.103 471.063 309.798 469.206 305.554 465.493C301.841 461.78 299.984 456.475 299.984 449.579ZM85.9371 449.579C85.9371 455.944 84.0805 461.249 80.3671 465.493C76.6538 469.206 71.349 471.063 64.4529 471.063C58.0871 471.063 52.7824 469.206 48.5386 465.493C44.8252 461.78 42.9686 456.475 42.9686 449.579C42.9686 443.213 44.8252 438.173 48.5386 434.46C52.2519 430.216 57.5567 428.094 64.4529 428.094C70.8186 428.094 75.8581 430.216 79.5714 434.46C83.8152 438.173 85.9371 443.213 85.9371 449.579ZM214.047 449.579C214.047 455.944 212.19 461.249 208.477 465.493C204.764 469.206 199.459 471.063 192.563 471.063C186.197 471.063 180.892 469.206 176.649 465.493C172.935 461.78 171.079 456.475 171.079 449.579C171.079 443.213 172.935 438.173 176.649 434.46C180.362 430.216 185.667 428.094 192.563 428.094C198.929 428.094 203.968 430.216 207.681 434.46C211.925 438.173 214.047 443.213 214.047 449.579ZM235.531 471.063C229.166 471.063 223.861 469.206 219.617 465.493C215.904 461.78 214.047 456.475 214.047 449.579C214.047 443.213 215.904 438.173 219.617 434.46C223.33 430.216 228.635 428.094 235.531 428.094C241.897 428.094 246.937 430.216 250.65 434.46C254.894 438.173 257.016 443.213 257.016 449.579C257.016 455.944 255.159 461.249 251.446 465.493C247.732 469.206 242.428 471.063 235.531 471.063ZM214.047 492.547C214.047 498.913 212.19 504.218 208.477 508.461C204.764 512.175 199.459 514.031 192.563 514.031C186.197 514.031 180.892 512.175 176.649 508.461C172.935 504.748 171.079 499.443 171.079 492.547C171.079 486.181 172.935 481.142 176.649 477.429C180.362 473.185 185.667 471.063 192.563 471.063C198.929 471.063 203.968 473.185 207.681 477.429C211.925 481.142 214.047 486.181 214.047 492.547ZM299.984 492.547C299.984 486.181 301.841 481.142 305.554 477.429C309.268 473.185 314.572 471.063 321.469 471.063C327.834 471.063 332.874 473.185 336.587 477.429C340.831 481.142 342.953 486.181 342.953 492.547C342.953 498.913 341.096 504.218 337.383 508.461C333.67 512.175 328.365 514.031 321.469 514.031C315.103 514.031 309.798 512.175 305.554 508.461C301.841 504.748 299.984 499.443 299.984 492.547ZM471.063 492.547C471.063 498.913 469.206 504.218 465.493 508.461C461.779 512.175 456.475 514.031 449.579 514.031C443.213 514.031 437.908 512.175 433.664 508.461C429.951 504.748 428.094 499.443 428.094 492.547C428.094 486.181 429.951 481.142 433.664 477.429C437.378 473.185 442.682 471.063 449.579 471.063C455.944 471.063 460.984 473.185 464.697 477.429C468.941 481.142 471.063 486.181 471.063 492.547ZM428.094 493.343C428.094 499.709 425.972 504.748 421.729 508.461C418.015 512.175 412.976 514.031 406.61 514.031C392.818 514.031 385.921 506.605 385.921 491.751C385.921 485.386 387.778 480.346 391.491 476.633C395.735 472.92 401.04 471.063 407.406 471.063C421.198 471.063 428.094 477.959 428.094 491.751V493.343ZM171.079 493.343C171.079 499.709 168.957 504.748 164.713 508.461C161 512.175 155.96 514.031 149.594 514.031C135.802 514.031 128.906 506.605 128.906 491.751C128.906 485.386 130.762 480.346 134.476 476.633C138.72 472.92 144.024 471.063 150.39 471.063C164.182 471.063 171.079 477.959 171.079 491.751V493.343ZM128.906 492.547C128.906 498.913 127.049 504.218 123.336 508.461C119.622 512.175 114.318 514.031 107.421 514.031C101.056 514.031 95.751 512.175 91.5071 508.461C87.7938 504.748 85.9371 499.443 85.9371 492.547C85.9371 486.181 87.7938 481.142 91.5071 477.429C95.2205 473.185 100.525 471.063 107.421 471.063C113.787 471.063 118.827 473.185 122.54 477.429C126.784 481.142 128.906 486.181 128.906 492.547ZM342.953 492.547C342.953 486.181 344.81 481.142 348.523 477.429C352.236 473.185 357.541 471.063 364.437 471.063C370.803 471.063 375.842 473.185 379.556 477.429C383.799 481.142 385.921 486.181 385.921 492.547C385.921 498.913 384.065 504.218 380.351 508.461C376.638 512.175 371.333 514.031 364.437 514.031C358.071 514.031 352.767 512.175 348.523 508.461C344.81 504.748 342.953 499.443 342.953 492.547ZM257.016 492.547C257.016 486.181 258.872 481.142 262.586 477.429C266.299 473.185 271.604 471.063 278.5 471.063C284.866 471.063 289.905 473.185 293.619 477.429C297.862 481.142 299.984 486.181 299.984 492.547C299.984 498.913 298.128 504.218 294.414 508.461C290.701 512.175 285.396 514.031 278.5 514.031C272.134 514.031 266.83 512.175 262.586 508.461C258.872 504.748 257.016 499.443 257.016 492.547ZM235.531 514.031C229.166 514.031 223.861 512.175 219.617 508.461C215.904 504.748 214.047 499.443 214.047 492.547C214.047 486.181 215.904 481.142 219.617 477.429C223.33 473.185 228.635 471.063 235.531 471.063C241.897 471.063 246.937 473.185 250.65 477.429C254.894 481.142 257.016 486.181 257.016 492.547C257.016 498.913 255.159 504.218 251.446 508.461C247.732 512.175 242.428 514.031 235.531 514.031ZM171.079 535.516C171.079 529.15 172.935 524.11 176.649 520.397C180.362 516.153 185.667 514.031 192.563 514.031C198.929 514.031 203.968 515.888 207.681 519.601C211.925 523.315 214.047 528.619 214.047 535.516C214.047 541.881 212.19 547.186 208.477 551.43C204.764 555.143 199.459 557 192.563 557C186.197 557 180.892 555.143 176.649 551.43C172.935 547.186 171.079 541.881 171.079 535.516ZM214.047 535.516C214.047 529.15 215.904 524.11 219.617 520.397C223.33 516.153 228.635 514.031 235.531 514.031C241.897 514.031 246.937 515.888 250.65 519.601C254.894 523.315 257.016 528.619 257.016 535.516C257.016 541.881 255.159 547.186 251.446 551.43C247.732 555.143 242.428 557 235.531 557C229.166 557 223.861 555.143 219.617 551.43C215.904 547.186 214.047 541.881 214.047 535.516ZM342.953 535.516C342.953 529.15 344.81 524.11 348.523 520.397C352.236 516.153 357.541 514.031 364.437 514.031C370.803 514.031 375.842 515.888 379.556 519.601C383.799 523.315 385.921 528.619 385.921 535.516C385.921 541.881 384.065 547.186 380.351 551.43C376.638 555.143 371.333 557 364.437 557C358.071 557 352.767 555.143 348.523 551.43C344.81 547.186 342.953 541.881 342.953 535.516ZM299.984 535.516C299.984 529.15 301.841 524.11 305.554 520.397C309.268 516.153 314.572 514.031 321.469 514.031C327.834 514.031 332.874 515.888 336.587 519.601C340.831 523.315 342.953 528.619 342.953 535.516C342.953 541.881 341.096 547.186 337.383 551.43C333.67 555.143 328.365 557 321.469 557C315.103 557 309.798 555.143 305.554 551.43C301.841 547.186 299.984 541.881 299.984 535.516ZM257.016 535.516C257.016 529.15 258.872 524.11 262.586 520.397C266.299 516.153 271.604 514.031 278.5 514.031C284.866 514.031 289.905 515.888 293.619 519.601C297.862 523.315 299.984 528.619 299.984 535.516C299.984 541.881 298.128 547.186 294.414 551.43C290.701 555.143 285.396 557 278.5 557C272.134 557 266.83 555.143 262.586 551.43C258.872 547.186 257.016 541.881 257.016 535.516Z" fill="white"/>
</svg>
